PathFileType	4	(X/Y/Z)	D:\TRACE\spotREDO_2-26-24\spot_baseline_4-v60.trc
DataRate	CameraRate	NumFrames	NumMarkers	Units	OrigDataRate	OrigDataStartFrame	OrigNumFrames
100.00	100.00	      24	9	mm	100.00	3501	      7000
Frame#	Time	front left toe			Front right toe			aft left toe			aft right toe			Arm			FL body			FR body			AL Body			AR Body			
		X1	Y1	Z1	X2	Y2	Z2	X3	Y3	Z3	X4	Y4	Z4	X5	Y5	Z5	X6	Y6	Z6	X7	Y7	Z7	X8	Y8	Z8	X9	Y9	Z9	

3501	35.000	-194.95660	21.09808	-165.12178	271.94492	22.39955	-97.82616	-251.36931	21.69965	277.71555	211.44751	24.69112	337.09488	77.40469	807.89673	-351.34952	-7.73281	548.37915	-337.38889	146.97844	553.23083	-319.55472	-117.90580	559.25500	539.27808	29.63625	559.44287	558.18311	
3502	35.010	-195.02382	21.09085	-165.12151	272.03625	22.48918	-97.71709	-251.52422	21.68200	277.70053	211.38879	24.69119	337.06268	77.31371	807.84772	-351.31549	-7.85553	548.36792	-337.39987	146.81071	553.20605	-319.63080	-118.10026	559.18817	539.19305	29.56685	559.26306	558.26337	
3503	35.020	-195.01790	21.04730	-165.10812	272.10577	22.47422	-97.71162	-251.59360	21.56985	277.69327	211.41954	24.80891	337.09064	77.21876	807.82501	-351.36221	-7.98289	548.30542	-337.45007	146.54411	553.15302	-319.69498	-118.20664	559.18890	539.10822	29.32890	559.26404	558.26898	
3504	35.030	-195.04671	21.04603	-165.08113	272.05261	22.50032	-97.68970	-251.49612	21.50302	277.74350	211.48499	24.83618	337.08154	77.15845	807.77515	-351.43552	-8.10035	548.28955	-337.48813	146.28026	553.12463	-319.79605	-118.34164	559.22485	539.06555	29.18558	559.25354	558.23383	
3505	35.040	-195.03331	21.00025	-165.10985	272.00909	22.48209	-97.74744	-251.53755	21.51745	277.71454	211.46782	24.84025	337.12842	76.94239	807.77509	-351.45773	-8.24854	548.29730	-337.64658	146.13699	553.10712	-319.86389	-118.52289	559.27332	538.99469	29.05722	559.23627	558.22125	
3506	35.050	-195.02109	20.97198	-165.10397	272.08188	22.49376	-97.77382	-251.51559	21.49130	277.73578	211.50658	24.85632	337.13190	76.84423	807.77142	-351.51849	-8.41935	548.32184	-337.73337	145.99457	553.08130	-319.88721	-118.65714	559.33978	538.98431	29.23615	559.19672	558.44055	
3507	35.060	-195.07545	21.00878	-165.11713	271.96118	22.46482	-97.80973	-251.55592	21.52764	277.73669	211.43239	24.81721	337.08176	76.68130	807.76367	-351.53860	-8.72678	548.37646	-337.85535	145.80521	553.07330	-319.89584	-118.82240	559.40137	538.92664	29.07996	559.18610	558.39679	
3508	35.070	-195.12978	21.05659	-165.11108	271.92731	22.48385	-97.81051	-251.56699	21.54846	277.75620	211.33563	24.77092	337.04083	76.60572	807.83112	-351.52139	-8.93149	548.45746	-337.97632	145.69379	553.07898	-319.90085	-118.93118	559.43579	538.86169	28.94291	559.19086	558.36145	
3509	35.080	-195.10205	21.07528	-165.09766	272.04053	22.50208	-97.81730	-251.59688	21.59430	277.74954	211.48093	24.83766	337.06473	76.41058	807.82520	-351.48111	-9.16838	548.50500	-337.92645	145.63527	553.08789	-319.89990	-119.00179	559.41412	538.83484	28.89207	559.19183	558.32349	
3510	35.090	-195.11255	21.05886	-165.14383	271.87140	22.49014	-97.87763	-251.63414	21.53089	277.71710	211.44408	24.84246	337.01575	76.31055	807.82538	-351.50104	-9.32299	548.56873	-337.88992	145.50644	553.13257	-319.94357	-119.08859	559.40308	538.79590	28.65035	559.14612	558.26593	
3511	35.100	-195.06445	21.00035	-165.14371	271.86713	22.46622	-97.91449	-251.66167	21.52101	277.77359	211.43222	24.82002	337.03955	76.26727	807.84631	-351.49380	-9.45073	548.61127	-337.93573	145.38200	553.14032	-320.00482	-119.22127	559.37439	538.78369	28.61413	559.12354	558.26202	
3512	35.110	-195.07637	20.93517	-165.08397	271.93655	22.50051	-97.87009	-251.56758	21.52265	277.77661	211.50661	24.87454	337.04669	76.13876	807.86884	-351.51596	-9.52677	548.62244	-337.93097	145.27028	553.15094	-320.03073	-119.37878	559.35382	538.74414	28.31905	559.15100	557.97974	
3513	35.120	-195.10683	20.94919	-165.07150	271.80240	22.43727	-97.92698	-251.62202	21.49050	277.71356	211.38045	24.86131	337.03647	75.89928	807.89801	-351.54172	-9.68495	548.62762	-337.96783	145.11523	553.16675	-320.08844	-119.58836	559.33508	538.69495	28.27176	559.10498	558.19507	
3514	35.130	-195.10146	20.95614	-165.09752	271.93539	22.48910	-97.85571	-251.59779	21.45662	277.72589	211.41910	24.87887	337.02780	75.75342	807.90936	-351.53168	-9.85906	548.61359	-338.03989	145.02757	553.22632	-320.13525	-119.72425	559.22174	538.64911	28.00480	559.15601	557.87360	
3515	35.140	-195.08195	20.93951	-165.13641	271.81253	22.46785	-97.90594	-251.63138	21.44545	277.73611	211.36288	24.89177	336.98230	75.56455	807.96021	-351.56097	-9.94610	548.62726	-338.07968	144.88211	553.23877	-320.15369	-119.87077	559.16956	538.58228	27.83977	559.13672	557.83850	
3516	35.150	-195.16864	21.00988	-165.13191	271.70215	22.45802	-97.95190	-251.72598	21.45198	277.76401	211.27687	24.82011	336.98160	75.47517	807.98309	-351.56238	-9.97785	548.59961	-338.08020	144.80165	553.23169	-320.19965	-120.06715	559.13611	538.48010	27.64149	559.16650	557.80176	
3517	35.160	-195.15388	20.98813	-165.16457	271.80887	22.51825	-97.90169	-251.71333	21.39135	277.78226	211.33131	24.89603	337.00314	75.34759	808.03778	-351.58664	-10.11058	548.59174	-338.09241	144.60786	553.25598	-320.26910	-120.29168	559.16400	538.41388	27.50639	559.21100	557.77936	
3518	35.170	-195.18060	20.93690	-165.14114	271.69751	22.47010	-97.95297	-251.76955	21.42965	277.74991	211.40045	24.89208	336.96359	75.25814	807.95752	-351.65958	-10.15227	548.61115	-338.11185	144.53130	553.22107	-320.32266	-120.37759	559.19781	538.37152	27.38642	559.29938	557.73883	
3519	35.180	-195.16830	20.96754	-165.14670	271.75098	22.48686	-97.95530	-251.73863	21.43450	277.79779	211.36311	24.95326	336.99503	75.09014	807.93372	-351.73001	-10.21156	548.56958	-338.14813	144.40501	553.18042	-320.37341	-120.46835	559.27655	538.40125	27.30137	559.34491	557.70367	
3520	35.190	-195.15775	20.96452	-165.09935	272.00641	22.61003	-97.79650	-251.62268	21.34369	277.79266	211.51845	25.03351	336.98508	74.92350	807.90814	-351.85037	-10.23525	548.54041	-338.16650	144.30943	553.16217	-320.45999	-120.53633	559.31140	538.39819	27.27584	559.40503	557.68512	
3521	35.200	-195.16167	20.90273	-165.07854	271.95547	22.59639	-97.81964	-251.67607	21.36679	277.74481	211.44698	24.94041	336.98566	74.85849	807.87366	-351.97311	-10.32618	548.47198	-338.21777	144.21983	553.14996	-320.51352	-120.62016	559.34076	538.36395	27.24040	559.42682	557.63043	
3522	35.210	-195.14053	20.82908	-165.08064	271.73453	22.50316	-97.94743	-251.68607	21.47593	277.70929	211.24275	24.87975	336.92648	74.61158	807.89252	-352.02615	-10.44556	548.42676	-338.26682	144.07274	553.12341	-320.61264	-120.68416	559.30457	538.35413	27.21087	559.44330	557.61389	
3523	35.220	-195.22092	20.93671	-165.13284	271.70831	22.49802	-97.91035	-251.66748	21.42653	277.70953	211.30728	24.96328	336.96130	74.40999	807.86432	-352.13516	-10.50511	548.34973	-338.30392	143.97762	553.13745	-320.65344	-120.78040	559.33380	538.35138	27.07622	559.42627	557.57721	
3524	35.230	-195.23608	20.96552	-165.12820	271.59677	22.51054	-97.97200	-251.77280	21.56734	277.70551	211.32196	24.95409	336.96637	74.20699	807.81622	-352.23270	-10.51501	548.20563	-338.29593	143.90263	553.10864	-320.68884	-120.86796	559.31958	538.30206	26.94863	559.45160	557.53802	
